<svg preserveAspectRatio="xMidYMid meet" viewBox="259.2 308.88 565.9200000000001 481.68" xmlns="http://www.w3.org/2000/svg" version="1.0" style="max-height: 500px" width="565.9200000000001" height="481.68">

<g stroke="none" fill="#ffffff" transform="translate(0.000000,1080.000000) scale(0.100000,-0.100000)">
<path d="M2922 7685 c-40 -14 -89 -36 -110 -49 -92 -58 -176 -167 -211 -273&#10;l-21 -63 2 -2007 3 -2008 23 -56 c56 -134 178 -249 314 -293 l77 -26 2401 0&#10;2401 0 77 26 c136 44 258 159 314 293 l23 56 3 2008 2 2007 -21 63 c-35 106&#10;-119 215 -211 273 -21 13 -71 35 -112 49 l-75 25 -2403 0 -2403 -1 -73 -24z&#10;m4656 -105 c208 -27 384 -191 428 -399 21 -99 21 -3643 0 -3742 -44 -207 -221&#10;-372 -427 -399 -100 -13 -4258 -13 -4358 0 -206 27 -383 192 -427 399 -21 99&#10;-21 3643 0 3742 33 153 133 283 272 350 52 25 106 43 146 48 90 12 4276 13&#10;4366 1z"/>
<path d="M4943 7123 c-22 -8 -16 -61 7 -68 39 -12 66 35 38 63 -13 13 -24 14&#10;-45 5z"/>
<path d="M5130 7020 c0 -38 -2 -40 -30 -40 -25 0 -30 -4 -30 -25 0 -21 5 -25&#10;30 -25 l30 0 0 -119 c0 -147 8 -162 93 -169 56 -4 57 -4 57 22 0 24 -4 26 -40&#10;26 -53 0 -60 16 -60 139 l0 101 50 0 c47 0 50 2 50 25 0 23 -3 25 -50 25 l-50&#10;0 0 40 c0 36 -2 40 -25 40 -22 0 -25 -4 -25 -40z"/>
<path d="M6168 7023 c-3 -33 -7 -38 -30 -41 -22 -3 -28 -9 -28 -28 0 -19 5&#10;-24 24 -24 24 0 24 -1 27 -121 4 -118 5 -121 32 -145 21 -18 40 -24 73 -24 40&#10;0 44 2 44 25 0 22 -4 25 -33 25 -52 0 -57 12 -57 132 l0 108 50 0 c47 0 50 2&#10;50 25 0 23 -3 25 -50 25 l-50 0 0 40 c0 36 -3 40 -24 40 -21 0 -25 -5 -28 -37z"/>
<path d="M4230 6980 c-78 -14 -130 -83 -130 -174 0 -144 156 -227 260 -139&#10;l30 25 0 -101 0 -101 30 0 30 0 -2 243 -3 242 -25 0 c-18 0 -26 -6 -28 -22&#10;l-3 -23 -28 21 c-35 26 -86 37 -131 29z m110 -69 c32 -22 52 -83 44 -128 -19&#10;-103 -141 -136 -204 -55 -27 34 -27 115 0 159 31 52 104 63 160 24z"/>
<path d="M5465 6978 c-49 -11 -102 -60 -115 -108 -41 -147 68 -271 203 -230&#10;42 12 97 61 97 86 0 21 -47 17 -62 -4 -18 -26 -51 -42 -88 -42 -41 0 -100 56&#10;-100 94 l0 26 136 0 136 0 -7 43 c-17 104 -95 157 -200 135z m118 -78 c48 -54&#10;40 -60 -78 -60 -115 0 -123 5 -84 54 44 55 115 58 162 6z"/>
<path d="M5855 6978 c-147 -30 -172 -257 -35 -325 24 -13 58 -23 75 -23 47 1&#10;112 35 135 72 26 43 25 48 -9 48 -21 0 -32 -6 -36 -20 -8 -26 -55 -50 -96 -50&#10;-22 0 -41 10 -65 34 -30 30 -34 40 -34 85 0 67 22 109 67 127 46 20 86 10 117&#10;-27 16 -18 34 -29 50 -29 31 0 32 5 6 47 -32 53 -99 76 -175 61z"/>
<path d="M7124 6978 c-43 -9 -87 -47 -99 -85 -6 -20 -3 -23 23 -23 21 0 32 7&#10;40 24 15 34 73 52 113 36 32 -14 49 -37 49 -69 0 -19 -6 -21 -72 -21 -95 0&#10;-138 -20 -156 -74 -36 -110 111 -181 208 -100 l30 26 0 -26 c0 -21 5 -26 25&#10;-26 l25 0 0 115 c0 122 -10 165 -48 199 -28 24 -86 34 -138 24z m122 -210 c-8&#10;-45 -57 -88 -99 -88 -65 0 -95 53 -53 95 22 22 34 25 92 25 l67 0 -7 -32z"/>
<path d="M3553 6960 c-52 -32 -73 -90 -31 -90 12 0 33 14 48 32 23 27 34 33&#10;70 33 48 0 80 -29 80 -71 0 -23 -3 -24 -69 -24 -111 0 -161 -31 -161 -101 0&#10;-102 135 -144 218 -67 l22 21 0 -26 c0 -22 5 -27 25 -27 l25 0 0 120 c0 138&#10;-12 180 -59 204 -43 22 -128 21 -168 -4z m167 -180 c0 -75 -89 -126 -148 -84&#10;-17 12 -22 24 -20 47 4 41 35 57 111 57 50 0 57 -2 57 -20z"/>
<path d="M3870 6810 l0 -170 24 0 c23 0 24 2 27 108 5 131 17 156 84 173 38&#10;10 45 15 45 35 0 36 -50 33 -95 -7 l-35 -31 0 31 c0 26 -4 31 -25 31 l-25 0 0&#10;-170z"/>
<path d="M4532 6846 c3 -118 6 -138 24 -163 44 -59 134 -67 194 -17 l30 26 0&#10;-26 c0 -21 5 -26 25 -26 l25 0 0 170 0 170 -25 0 -25 0 0 -102 c0 -78 -4 -112&#10;-18 -138 -21 -43 -62 -64 -108 -56 -52 10 -64 43 -64 181 l0 115 -31 0 -31 0&#10;4 -134z"/>
<path d="M4940 6810 l0 -170 25 0 25 0 0 170 0 170 -25 0 -25 0 0 -170z"/>
<path d="M6383 6964 c-12 -31 4 -238 20 -270 17 -32 69 -64 106 -64 30 0 83&#10;24 101 45 14 17 15 16 20 -6 4 -17 14 -25 33 -27 l27 -3 -2 168 -3 168 -27 3&#10;-26 3 -4 -121 -3 -122 -33 -29 c-40 -36 -81 -38 -119 -5 -28 24 -28 26 -31&#10;150 l-4 126 -24 0 c-14 0 -27 -7 -31 -16z"/>
<path d="M6780 6810 l0 -170 30 0 30 0 0 109 c0 103 1 111 26 140 14 17 34 31&#10;44 31 34 0 50 12 50 36 0 18 -5 24 -22 24 -28 0 -88 -35 -89 -52 0 -7 -5 2&#10;-10 20 -8 25 -15 32 -34 32 l-25 0 0 -170z"/>
<path d="M3825 6115 c-181 -40 -318 -126 -420 -264 -30 -42 -60 -119 -73 -189&#10;l-9 -52 136 0 137 0 11 43 c26 97 111 185 220 228 86 34 253 34 342 0 132 -50&#10;207 -166 225 -347 l5 -52 -297 -5 c-308 -5 -360 -11 -487 -56 -74 -26 -185&#10;-100 -225 -151 -76 -96 -111 -237 -91 -363 31 -196 163 -335 367 -387 97 -25&#10;291 -27 379 -5 131 34 244 116 324 236 l39 58 7 -107 c3 -59 7 -120 8 -137 l2&#10;-30 118 -3 117 -3 0 525 c0 635 -4 666 -103 823 -106 170 -287 254 -546 252&#10;-69 0 -153 -7 -186 -14z m568 -892 c-29 -318 -237 -519 -517 -500 -113 8 -170&#10;30 -231 91 -61 60 -81 117 -72 202 9 89 59 160 143 203 75 39 162 49 430 50&#10;l252 1 -5 -47z"/>
<path d="M5655 6117 c-123 -32 -238 -107 -306 -200 -27 -37 -28 -38 -33 -15&#10;-3 12 -8 62 -11 111 l-7 87 -119 0 -119 0 0 -785 0 -785 129 0 129 0 4 473 c5&#10;439 6 477 26 549 40 147 113 249 219 305 188 100 414 45 506 -124 60 -110 61&#10;-121 65 -685 l3 -518 129 0 128 0 5 473 c5 512 7 535 62 654 94 204 304 296&#10;518 227 64 -21 149 -100 182 -170 51 -107 55 -163 55 -695 l0 -489 130 0 130&#10;0 0 514 c0 567 -5 627 -60 760 -88 209 -282 326 -540 326 -123 0 -196 -16&#10;-295 -64 -76 -38 -174 -120 -219 -185 -16 -23 -31 -41 -35 -41 -3 0 -19 23&#10;-36 51 -57 97 -146 165 -275 211 -70 26 -289 34 -365 15z"/>
<path d="M5440 3890 l0 -99 -36 24 c-36 24 -58 29 -119 25 -106 -7 -170 -153&#10;-115 -261 46 -89 165 -115 240 -53 l30 26 0 -26 c0 -22 4 -26 30 -26 l30 0 0&#10;245 0 245 -30 0 -30 0 0 -100z m-50 -119 c32 -22 52 -83 44 -128 -19 -103&#10;-141 -136 -204 -55 -27 34 -27 115 0 159 31 52 104 63 160 24z"/>
<path d="M5980 3745 l0 -245 25 0 25 0 0 245 0 245 -25 0 -25 0 0 -245z"/>
<path d="M4282 3839 c-18 -4 -41 -14 -52 -24 -17 -16 -19 -15 -25 4 -4 14 -15&#10;21 -31 21 l-24 0 0 -170 0 -170 29 0 29 0 4 120 c3 115 4 121 30 147 36 36 92&#10;37 119 4 16 -20 19 -41 19 -147 l0 -124 30 0 30 0 0 100 c0 143 25 194 96 194&#10;22 0 42 -8 57 -22 20 -20 22 -34 26 -147 l3 -125 25 0 25 0 -4 141 -3 141 -33&#10;29 c-27 25 -41 29 -87 29 -46 0 -60 -5 -87 -29 l-32 -28 -20 24 c-25 28 -78&#10;42 -124 32z"/>
<path d="M4879 3840 c-83 -14 -129 -78 -129 -178 0 -45 5 -67 23 -93 26 -39&#10;97 -79 142 -79 50 0 117 40 142 85 42 74 20 199 -42 239 -33 22 -93 33 -136&#10;26z m99 -66 c30 -19 42 -53 42 -114 0 -65 -36 -109 -95 -117 -34 -4 -46 -1&#10;-72 21 -120 101 -4 294 125 210z"/>
<path d="M5582 3706 c3 -118 6 -138 24 -163 44 -59 134 -67 194 -17 l30 26 0&#10;-26 c0 -21 5 -26 25 -26 l25 0 0 170 0 170 -25 0 -25 0 0 -102 c0 -78 -4 -112&#10;-18 -138 -21 -43 -62 -64 -108 -56 -52 10 -64 43 -64 181 l0 115 -31 0 -31 0&#10;4 -134z"/>
<path d="M6183 3820 c-52 -32 -73 -90 -31 -90 12 0 33 14 48 32 23 27 34 33&#10;70 33 48 0 80 -29 80 -71 0 -23 -3 -24 -69 -24 -111 0 -161 -31 -161 -101 0&#10;-102 135 -144 218 -67 l22 21 0 -26 c0 -22 5 -27 25 -27 l25 0 0 120 c0 138&#10;-12 180 -59 204 -43 22 -128 21 -168 -4z m167 -180 c0 -75 -89 -126 -148 -84&#10;-17 12 -22 24 -20 47 4 41 35 57 111 57 50 0 57 -2 57 -20z"/>
<path d="M6500 3670 l0 -170 24 0 c23 0 24 2 27 108 5 131 17 156 84 173 38&#10;10 45 15 45 35 0 36 -50 33 -95 -7 l-35 -31 0 31 c0 26 -4 31 -25 31 l-25 0 0&#10;-170z"/>
</g>
</svg>